# xmcd CD database file
#
# Track frame offsets:
#	150
#	13203
#	26159
#	40315
#	53760
#	67974
#	82243
#	95366
#	109052
#	122109
#	130500
#	143778
#	158061
#	170470
#	183933
#	200047
#	213862
#
# Disc length: 2977 seconds
#
# Revision: 1
# Processed by: cddbd v1.4PL0 Copyright (c) Steve Scherf et al.
# Submitted via: CDex 1.50beta10
#
DISCID=ec0b9f11
DTITLE=Leadbelly - Midnight Special
DYEAR=2000
DGENRE=Blues
TTITLE0=Good Morning Blues
TTITLE1=Packin' Trunk
TTITLE2=The Red Cross Store Blues
TTITLE3=Death Letter Blues Pt. 1
TTITLE4=I'm On My Last Go Round
TTITLE5=Easy Rider
TTITLE6=Ox Drivin' Blues
TTITLE7=New York City
TTITLE8=Rock Island Line
TTITLE9=On Monday
TTITLE10=See See Rider
TTITLE11=Alberta
TTITLE12=Eagle Rock Rag
TTITLE13=Pick A Ball Of Cotton
TTITLE14=Leaving Blues
TTITLE15=Alabama Bound
TTITLE16=Midnight Special
EXTD=night passage YEAR: 2000
EXTT0=
EXTT1=
EXTT2=
EXTT3=
EXTT4=
EXTT5=
EXTT6=
EXTT7=
EXTT8=
EXTT9=
EXTT10=
EXTT11=
EXTT12=
EXTT13=
EXTT14=
EXTT15=
EXTT16=
PLAYORDER=
